<?xml version="1.0" encoding="utf-8"?>
<!-- Designed by Vexels.com - 2019 All Rights Reserved - https://vexels.com/terms-and-conditions/  -->
<svg version="1.1" id="Layer_1" xmlns="http://www.w3.org/2000/svg" xmlns:xlink="http://www.w3.org/1999/xlink" x="0px" y="0px"
	 viewBox="0 0 1200 1200" enable-background="new 0 0 1200 1200" xml:space="preserve">
<g>
	<path fill="#FFC20F" d="M658.018,220.678c1.121-7.833,1.537-15.578,2.102-22.544c2.203-27.123-11.465-53.815-43.636-72.771
		c-6.834-4.027-26.165-8.392-30.767-14.039c16.815,20.628,27.432,46.18,20.224,72.006c-0.582,2.081-3.978,8.44-8.809,16.729
		c-29.845-77.577-140.438-86.486-140.438-86.486s58.683,54.87,65.077,109.488C255.074,258.963,50,475.669,50,737.685
		c0,287.124,258.826,350.99,562.583,350.99c303.756,0,537.417-63.866,537.417-350.99C1150,469.086,934.5,248.079,658.018,220.678z"
		/>
	<g>
		<g>
			<path fill="#FFFFFF" d="M861.829,796.296c101.184-25.002,133.026-199.021,0-246.404
				C691.4,489.183,674.049,842.687,861.829,796.296z"/>
			<path fill="#1E1E1E" d="M850.92,591.59c-113.427-39.923-124.976,192.545,0,162.038
				C918.265,737.185,939.452,622.756,850.92,591.59z M829.459,641.207c-9.23,0-16.713-7.483-16.713-16.713
				c0-9.23,7.483-16.713,16.713-16.713s16.712,7.483,16.712,16.713C846.172,633.725,838.689,641.207,829.459,641.207z
				 M868.826,676.295c-12.512,0-22.655-10.143-22.655-22.654c0-12.512,10.143-22.655,22.655-22.655s22.655,10.143,22.655,22.655
				C891.481,666.152,881.338,676.295,868.826,676.295z"/>
			<path fill="#1E1E1E" d="M812.204,468.183c45.323-7.835,89.81,18.559,121.018,49.202c12.869,12.636-8.909,30.174-21.609,17.706
				c-24.102-23.663-60.091-45.362-95.027-39.325C798.829,498.839,794.466,471.248,812.204,468.183z"/>
		</g>
		<path fill="#1E1E1E" d="M443.008,685.771c-4.528-42.511-27.143-81.644-66.986-99.815c-18.883-8.612-28.599,20.565-10.984,29.685
			c15.334,7.939,28.579,20.054,36.667,34.841c-17.619-7.997-37.17-11.813-57.335-12.372c-31.419-0.87-77.029,2.583-94.313,33.719
			c-5.702,10.27,3.67,25.803,16.137,19.093c10.98-5.91,20.43-12.475,32.818-15.322c13.675-3.143,28.11-3.415,42.07-2.786
			c26.35,1.187,53.421,7.574,72.717,26.675C425.669,711.239,444.82,702.787,443.008,685.771z"/>
		<path fill="#1E1E1E" d="M344.931,511.048c-40.62-7.201-80.62,16.296-108.72,43.656c-11.59,11.285,7.873,27.096,19.311,15.96
			c21.7-21.126,54.062-40.444,85.369-34.894C356.803,538.593,360.825,513.866,344.931,511.048z"/>
	</g>
	<path fill="#F4840B" d="M894.933,877.581c-8.457-43.694-79.678-57.663-149.922-37.744c-43.441,12.318-56.679-32.787-84.025-55.868
		c-39.634-33.452-100.895-38.476-141.22-3.216c-27.502,24.048-39.516,71.881-84.638,59.085
		c-70.245-19.92-141.468-5.951-149.925,37.743c-6.291,32.501,47.179,33.55,97.706,93.312
		c49.611,58.677,126.516,70.579,198.905,70.194c75.803-0.403,171.361-8.169,223.802-70.196
		C856.141,911.131,901.223,910.082,894.933,877.581z"/>
	<path fill="#F4840B" d="M894.933,877.581c-8.457-43.694-79.678-57.663-149.922-37.744c-43.441,12.318-56.679-32.787-84.025-55.868
		c-39.634-33.452-100.895-38.476-141.22-3.216c-27.502,24.048-39.516,71.881-84.638,59.085
		c-70.245-19.92-141.468-5.951-149.925,37.743c-6.291,32.501,47.179,33.55,97.706,93.312
		c49.611,58.677,126.516,70.579,198.905,70.194c75.803-0.403,171.361-8.169,223.802-70.196
		C856.141,911.131,901.223,910.082,894.933,877.581z"/>
	<g>
		<path fill="#F25E0C" d="M639.145,848.373c-2.882-10.422-4.897-21.178-8.405-31.397c-1.835-5.342-5.764-9.25-11.792-8.792
			c-5.208,0.395-10.425,4.881-10.326,10.473c0.211,11.801,2.636,23.462,4.886,35.022c1.174,6.035,6.362,9.694,12.133,10.417
			c3.864,0.484,6.454-1.252,9.442-3.344C638.552,858.325,640.24,852.335,639.145,848.373z"/>
		<path fill="#F25E0C" d="M543.426,846.8c2.882-10.422,4.897-21.178,8.405-31.397c1.835-5.342,5.764-9.25,11.792-8.792
			c5.208,0.396,10.425,4.881,10.326,10.473c-0.211,11.801-2.636,23.462-4.886,35.021c-1.174,6.035-6.362,9.694-12.133,10.417
			c-3.864,0.484-6.454-1.252-9.442-3.344C544.018,856.752,542.33,850.763,543.426,846.8z"/>
	</g>
	<path fill="#F25E0C" d="M753.767,929.008c-26.977,8.859-54.635,15.578-82.605,20.445c-26.95,4.69-56.15,10.838-83.561,9.002
		c-23.356-1.564-46.835-2.947-69.942-6.868c-30.611-5.194-60.827-12.895-90.323-22.579c-29.54-9.701-58.511-21.477-86.348-35.337
		c-17.15-8.538-33.757-19.991-51.086-28.84c-2.197,3.926-14.015-0.499-14.903,4.087c-0.424,2.198-5.345,7.497-5.242,9.436
		c12.835,9.587,45.766,22.268,54.924,27.201c27.747,14.949,56.574,27.908,86.225,38.594c31.203,11.245,63.254,20.061,95.804,26.413
		c26.637,5.198,56.212,11.806,83.842,10.557c27.632,1.249,57.209-5.359,83.846-10.557c32.55-6.352,64.601-15.169,95.8-26.413
		c29.651-10.686,58.479-23.645,86.227-38.594c8.946-4.82,26.278-11.871,39.04-21.133c0.09-2.133-0.057-4.388-0.532-6.84
		c-0.86-4.441-2.398-8.559-4.489-12.381c-17.057,8.794-33.427,20.057-50.325,28.471
		C812.281,907.531,783.312,919.307,753.767,929.008z"/>
	<path fill="#F25E0C" d="M305.278,835.413c-1.449-1.602-3.042-2.328-4.958-3.203c-4.853-2.217-10.041,1.102-12.947,4.675
		c-7.667,9.428-15.071,19.041-23.018,28.242c-3.189,3.692-6.117,7.659-10.048,10.588c-2.985,2.223-6.676,3.962-6.849,8.259
		c-0.004,0.129-0.01,0.257-0.014,0.386c-0.153,3.791,2.349,7.825,6.132,8.874c11.986,3.323,20.388-5.9,27.799-14.086
		c8.743-9.658,17.371-19.553,25.028-30.1C309.285,845.08,308.458,838.927,305.278,835.413z"/>
</g>
</svg>
